<svg width="21" height="27" viewBox="0 0 21 27" fill="none" xmlns="http://www.w3.org/2000/svg">
<path d="M10.4453 17.1504C11.0953 17.1504 11.6084 16.6258 11.6084 16.0101V4.68671L11.5172 2.99904L12.1786 3.85427L13.6724 5.45072C13.8777 5.67878 14.1627 5.79282 14.4478 5.79282C15.0066 5.79282 15.4741 5.3823 15.4741 4.80074C15.4741 4.50426 15.3601 4.27619 15.1548 4.07094L11.3462 0.410514C11.0383 0.114032 10.7532 0 10.4453 0C10.1374 0 9.84094 0.114032 9.54446 0.410514L5.7358 4.07094C5.51914 4.27619 5.40511 4.50426 5.40511 4.80074C5.40511 5.3823 5.87264 5.79282 6.43139 5.79282C6.71647 5.79282 7.01296 5.67878 7.20681 5.45072L8.71203 3.85427L9.37341 2.99904L9.27079 4.68671V16.0101C9.27079 16.6258 9.79533 17.1504 10.4453 17.1504ZM3.86568 26.3642H17.0249C19.5565 26.3642 20.8906 25.03 20.8906 22.5327V11.426C20.8906 8.92869 19.5565 7.59452 17.0249 7.59452H14.0031V10.1374H16.8083C17.8004 10.1374 18.3477 10.6506 18.3477 11.6883V22.2704C18.3477 23.3195 17.8004 23.8212 16.8083 23.8212H4.08234C3.07886 23.8212 2.54291 23.3195 2.54291 22.2704V11.6883C2.54291 10.6506 3.07886 10.1374 4.08234 10.1374H6.92173V7.59452H3.86568C1.34558 7.59452 0 8.92869 0 11.426V22.5327C0 25.0414 1.34558 26.3642 3.86568 26.3642Z" fill="#A8A8A8"/>
</svg>
